<?xml version="1.0" encoding="iso-8859-1"?>
<!-- Generator: Adobe Illustrator 19.0.0, SVG Export Plug-In . SVG Version: 6.00 Build 0)  -->
<svg version="1.1" id="Capa_1" xmlns="http://www.w3.org/2000/svg" xmlns:xlink="http://www.w3.org/1999/xlink" x="0px" y="0px"
	 viewBox="0 0 512 512" style="enable-background:new 0 0 512 512;" xml:space="preserve">
<g>
	<g>
		<path d="M363.014,187.727H148.986c-4.147,0-7.508,3.362-7.508,7.508s3.361,7.508,7.508,7.508h214.028
			c4.147,0,7.508-3.362,7.508-7.508S367.16,187.727,363.014,187.727z"/>
	</g>
</g>
<g>
	<g>
		<path d="M363.014,233.359H148.986c-4.147,0-7.508,3.362-7.508,7.508s3.361,7.508,7.508,7.508h214.028
			c4.147,0,7.508-3.362,7.508-7.508S367.16,233.359,363.014,233.359z"/>
	</g>
</g>
<g>
	<g>
		<path d="M363.014,452.608H148.986c-4.147,0-7.508,3.362-7.508,7.508s3.361,7.508,7.508,7.508h214.028
			c4.147,0,7.508-3.362,7.508-7.508S367.16,452.608,363.014,452.608z"/>
	</g>
</g>
<g>
	<g>
		<path d="M413.923,109.223c-4.147,0-7.508,3.362-7.508,7.508v369.068c0,6.167-5.017,11.185-11.185,11.185H116.77
			c-6.167,0-11.185-5.017-11.185-11.185V432.3c0-4.147-3.362-7.508-7.508-7.508c-4.147,0-7.508,3.362-7.508,7.508v53.499
			c0,14.447,11.754,26.201,26.201,26.201h278.46c14.447,0,26.201-11.754,26.201-26.201V116.731
			C421.431,112.585,418.07,109.223,413.923,109.223z"/>
	</g>
</g>
<g>
	<g>
		<path d="M395.23,0H116.77c-14.447,0-26.201,11.754-26.201,26.201v366.055c0,4.147,3.362,7.508,7.508,7.508
			c4.147,0,7.508-3.362,7.508-7.508V26.201c0-6.167,5.017-11.185,11.185-11.185h278.46c6.167,0,11.185,5.018,11.185,11.185v50.486
			c0,4.147,3.362,7.508,7.508,7.508s7.508-3.362,7.508-7.508V26.201C421.431,11.754,409.678,0,395.23,0z"/>
	</g>
</g>
<g>
	<g>
		<path d="M355.012,59.834H156.989c-8.553,0-15.511,6.958-15.511,15.511v51.339c0,8.553,6.958,15.511,15.511,15.511h198.023
			c8.553,0,15.511-6.958,15.511-15.511V75.345C370.523,66.792,363.565,59.834,355.012,59.834z M355.507,126.684
			c0,0.273-0.222,0.495-0.495,0.495H156.989c-0.273,0-0.495-0.222-0.495-0.495V75.345c0-0.273,0.222-0.495,0.495-0.495h198.023
			c0.273,0,0.495,0.222,0.495,0.495V126.684z"/>
	</g>
</g>
<g>
	<g>
		<path d="M256,309.495c-30.845,0-55.939,25.094-55.939,55.939c0,30.845,25.094,55.939,55.939,55.939
			c30.845,0,55.939-25.094,55.939-55.939C311.939,334.589,286.845,309.495,256,309.495z M256,406.357
			c-22.565,0-40.923-18.358-40.923-40.923s18.358-40.923,40.923-40.923s40.923,18.358,40.923,40.923S278.565,406.357,256,406.357z"
			/>
	</g>
</g>
<g>
</g>
<g>
</g>
<g>
</g>
<g>
</g>
<g>
</g>
<g>
</g>
<g>
</g>
<g>
</g>
<g>
</g>
<g>
</g>
<g>
</g>
<g>
</g>
<g>
</g>
<g>
</g>
<g>
</g>
</svg>
