<svg width="202" height="265" viewBox="0 0 202 265" fill="none" xmlns="http://www.w3.org/2000/svg"><path d="M139.093 13.31c-6.555-3.904-10.458-6.408-13.478-8.029-3.019-1.62-8.838-3.936-11.563-4.25-2.725-.316-11.563 1.893-21.948 3.956C81.72 7.049 21.254 18.98 18.086 19.569c-3.167.59-2.946 1.62-5.818 3.536-2.873 1.915-4.787 3.166-6.113 4.787-1.326 1.62-2.136 3.02-2.946 5.67-.81 2.652-1.93 7.321-2.136 8.277-.207.955.6 1.274 1.161 1.593.316.188.687.261 1.05.206a30.062 30.062 0 0 0-.818 7.29c.042 4.08-.084 23.344-.084 29.526v125.344c0 2.355.673 5.972 1.094 8.286-.968 0-1.472-.084-1.935.294-.463.379-.624.421-.501 1.599.123 1.177 1.51 8.538 2.268 10.599.757 2.061 1.388 3.533 3.407 5.09 2.019 1.556 6.033 4.618 7.606 5.481 1.573.862 3.856 2.029 16.998 5.429 13.142 3.4 45.69 11.719 50.773 13.162 5.084 1.442 21.092 5.884 24.939 6.801 3.847.917 7.987 1.486 12.93-.465 4.944-1.952 7.058-2.992 12.717-6.147 5.659-3.155 12.587-6.993 14.506-8.164a513.964 513.964 0 0 0 2.862-1.756l8.206-1.484s9.047 2.28 13.464 3.348c4.416 1.069 9.972 2.921 13.249.784a97.326 97.326 0 0 0 8.901-6.816c2.318-1.944 2.766-2.093 3.178-2.579.411-.486 2.018-3.402 2.616-4.449.599-1.047.748-1.346.337-1.682a7.723 7.723 0 0 1-.735-.789c-.228-.213-.303-.44-.774-.152-.47.288-3.427 2.093-4.231 2.684a12.866 12.866 0 0 0-2.426 2.609c-.607.864-1.229 1.835-1.229 1.835h-3.306s7.067-5.854 7.704-6.339c.637-.486 1.001-.895 1.562-2.533.561-1.638 1.608-4.792 1.699-6.006.561-1.213.91-2.062.91-4.292V42.018a9.055 9.055 0 0 0-.293-2.539 208.23 208.23 0 0 0-.761-2.898c-.169-.614-.497-.676-.764-1.794a29.458 29.458 0 0 0-.858-2.88c-.126-.298-1.022-1.132-1.525-1.525.77.44 3.208 1.635 3.884 2.013.677.377.881.44 1.274.016.393-.425.551-.567.739-.771.189-.204.236-.566-.267-1.526-.503-.959-1.761-3.601-2.155-4.466a5.375 5.375 0 0 0-1.73-2.186c-.975-.818-5.394-4.34-7.077-5.646-1.682-1.305-3.192-2.784-4.907-3.57a10.812 10.812 0 0 0-6.526-.755c-2.721.456-20.095 3.266-20.095 3.266l-19.017-3.448z" stroke="#3F4C5F" stroke-width="2" stroke-miterlimit="10"/><path d="M12.805 231.16l2.386-6.197-6.43-4.275s2.619 8.252 4.044 10.472zm12.783-2.93l-2.182 5.929 67.51 16.835a10.244 10.244 0 0 0 4.335-2.075 153.28 153.28 0 0 0 3.798-3.415L25.588 228.23zM186.309 23.508l8.664 6.873a26.339 26.339 0 0 1-2.699-3.541c-1.206-1.936-2.062-3.332-2.062-3.332h-3.903zm-87.075-6.015L25.926 30.255s-2.09-5.07-1.834-5.477c.535-.102 65.335-12.073 66.43-12.252 1.096-.178 1.733-.229 3.134.51 1.4.738 3.668 2.496 5.578 4.457zm-86.062 9.909L8.981 37.25s3.918-2.084 6.473-4.242c-1.34-3.372-2.282-5.605-2.282-5.605zm136.873 218.606a2.065 2.065 0 0 0 0-1.744c-.433-.953-.092-1.021-2.511-1.396a36.156 36.156 0 0 0-5.824-.409c-.92.034-1.704.375-3.611 1.26-1.908.886-11.139 5.553-14.545 7.052-3.406 1.498-7.494 3.099-11.173 3.61-3.679.511-7.698.409-12.944-.954-5.246-1.362-8.523-2.432-8.523-2.432M8.762 220.686s-2.122-.725-2.705-1.697a18.897 18.897 0 0 1-1.037-2.041s-1.274-1.374-1.544-2.866" stroke="#3F4C5F" stroke-width="2" stroke-miterlimit="10"/><path d="M5.02 216.949l.933.437a3.038 3.038 0 0 0 1.929 1.415c1.406.362 109.682 24.548 112.495 25.231 2.812.683 4.66.884 7.312-.281s14.223-6.79 17.437-8.598c3.214-1.808 5.83-2.988 5.83-11.657v-41.105s1.914-2.505 2.401-3.253c.486-.749.861-1.16.861-5.914V92.141c0-2.738-.077-3.487-1.374-5.127a29.442 29.442 0 0 0-1.945-2.288v-40.74c0-5.206.538-9.535-5.307-12.857-5.846-3.321-13.9-7.52-15.85-8.428-1.951-.907-4.445-2.284-9.933-1.368-5.487.915-108.84 17.429-110.828 17.838-1.989.409-1.883.07-2.782 1.175-.925.36-2.47 1.046-2.914 3.292" stroke="#3F4C5F" stroke-width="2" stroke-miterlimit="10"/><path d="M126.095 21.332a5.655 5.655 0 0 0-2.166 4.614v213.882c.062 1.62.43 3.213 1.083 4.696M90.52 12.523c8.47-1.641 15.951-4.007 23.497-1.641 7.546 2.366 18.225 8.466 21.742 10.148 3.517 1.682 4.569 2.584 5.679 2.794 1.11.21 3.601.09 5.852-.15 2.25-.24 2.76-.45 3-1.2.24-.75.811-1.771-.84-2.761-1.65-.99-10.359-6.405-10.359-6.405m19.022 3.45s21.717 3.686 23.359 3.98c1.642.292 3.116 1.395 4.836 2.772" stroke="#3F4C5F" stroke-width="2" stroke-miterlimit="10"/><path d="M190.209 23.51c-1.625-2.72-3.537-6.263-6.054-7.429-2.517-1.165-4.894-1.398-8.483-.792-3.59.606-13.778 2.112-13.778 2.112m-11.731 5.376c2.445 1.491 8.353 5.4 9.881 6.43 1.529 1.028 4.879 3.673 4.879 12.108v184.452c0 6.013-2.755 10.073-5.988 11.927-3.232 1.853-9.654 5.53-9.654 5.53m8.969 1.3l24.335-4.567s-1.198 1.435-2.182 2.493c-.985 1.058-1.926 1.171-3.851.772-1.926-.398-5.137-1.169-5.137-1.169" stroke="#3F4C5F" stroke-width="2" stroke-miterlimit="10"/><path d="M187.299 239.316s-2.647 2.222-3.912 3.135c-1.266.913-3.185 1.31-5.285.982" stroke="#3F4C5F" stroke-width="2" stroke-miterlimit="10"/><path d="M190.603 239.316c-2.51 3.474-5.327 8.323-8.559 8.646-3.232.323-5.172.185-8.82-.785-3.648-.97-12.822-3.056-12.822-3.056m-9.957-222.086c1.937 1.042 4.061 2.135 6.966 2.604 2.905.468 25.27 4.185 27.145 4.466 1.874.282 3.002-.218 1.751-2.03a2126.691 2126.691 0 0 1-4.247-6.196m-7.416 110.262v3.851a1.734 1.734 0 0 0 .813 1.48l2.815 1.72a1.663 1.663 0 0 0 1.796-.011l2.72-1.811a1.74 1.74 0 0 0 .776-1.45v-3.707a1.733 1.733 0 0 0-.776-1.45l-2.72-1.811a1.668 1.668 0 0 0-1.796-.011l-2.815 1.72a1.73 1.73 0 0 0-.813 1.48z" stroke="#3F4C5F" stroke-width="2" stroke-miterlimit="10"/></svg>