<?xml version="1.0" encoding="iso-8859-1"?>
<!-- Generator: Adobe Illustrator 19.0.0, SVG Export Plug-In . SVG Version: 6.00 Build 0)  -->
<svg version="1.1" id="Capa_1" xmlns="http://www.w3.org/2000/svg" xmlns:xlink="http://www.w3.org/1999/xlink" x="0px" y="0px"
	 viewBox="0 0 512 512" style="enable-background:new 0 0 512 512;" xml:space="preserve">
<g>
	<g>
		<path d="M504.5,268.5c-4.142,0-7.5,3.358-7.5,7.5v207.581c0,7.399-6.02,13.419-13.419,13.419H28.419
			C21.02,497,15,490.98,15,483.581V276c0-4.142-3.358-7.5-7.5-7.5S0,271.858,0,276v207.581C0,499.251,12.749,512,28.419,512H483.58
			c15.67,0,28.419-12.749,28.419-28.419V276C512,271.858,508.642,268.5,504.5,268.5z"/>
	</g>
</g>
<g>
	<g>
		<path d="M483.581,0H28.419C12.749,0,0,12.749,0,28.419V236c0,4.142,3.358,7.5,7.5,7.5s7.5-3.358,7.5-7.5V28.419
			C15,21.02,21.02,15,28.419,15H483.58c7.4,0,13.42,6.02,13.42,13.419V236c0,4.142,3.358,7.5,7.5,7.5c4.142,0,7.5-3.358,7.5-7.5
			V28.419C512,12.749,499.251,0,483.581,0z"/>
	</g>
</g>
<g>
	<g>
		<path d="M410.337,101.662C369.113,60.436,314.301,37.732,256,37.732c-58.301,0-113.113,22.704-154.338,63.929
			C60.436,142.887,37.732,197.699,37.732,256c0,58.301,22.704,113.113,63.929,154.338c41.225,41.226,96.037,63.929,154.338,63.929
			c58.301,0,113.113-22.704,154.338-63.929c41.226-41.225,63.929-96.037,63.929-154.338S451.562,142.887,410.337,101.662z
			 M256,459.268c-112.082,0-203.268-91.186-203.268-203.268S143.918,52.732,256,52.732S459.268,143.918,459.268,256
			S368.082,459.268,256,459.268z"/>
	</g>
</g>
<g>
	<g>
		<path d="M453.215,422.074c-15.732,0-28.531,12.799-28.531,28.531s12.799,28.531,28.531,28.531s28.531-12.799,28.531-28.531
			S468.947,422.074,453.215,422.074z M453.215,464.136c-7.461,0-13.531-6.07-13.531-13.531s6.07-13.531,13.531-13.531
			s13.531,6.07,13.531,13.531S460.676,464.136,453.215,464.136z"/>
	</g>
</g>
<g>
	<g>
		<path d="M58.785,422.074c-15.732,0-28.531,12.799-28.531,28.531s12.799,28.531,28.531,28.531
			c15.732,0,28.531-12.799,28.531-28.531S74.517,422.074,58.785,422.074z M58.785,464.136c-7.461,0-13.531-6.07-13.531-13.531
			s6.07-13.531,13.531-13.531c7.461,0,13.531,6.07,13.531,13.531S66.246,464.136,58.785,464.136z"/>
	</g>
</g>
<g>
	<g>
		<path d="M58.785,26.5c-15.732,0-28.531,12.799-28.531,28.531s12.799,28.531,28.531,28.531c15.732,0,28.531-12.799,28.531-28.531
			S74.517,26.5,58.785,26.5z M58.785,68.562c-7.461,0-13.531-6.07-13.531-13.531S51.324,41.5,58.785,41.5
			c7.461,0,13.531,6.07,13.531,13.531S66.246,68.562,58.785,68.562z"/>
	</g>
</g>
<g>
	<g>
		<path d="M453.215,26.5c-15.732,0-28.531,12.799-28.531,28.531s12.799,28.531,28.531,28.531s28.531-12.799,28.531-28.531
			S468.947,26.5,453.215,26.5z M453.215,68.562c-7.461,0-13.531-6.07-13.531-13.531s6.07-13.531,13.531-13.531
			s13.531,6.07,13.531,13.531S460.676,68.562,453.215,68.562z"/>
	</g>
</g>
<g>
	<g>
		<path d="M443.386,245.611c-0.624-11.328-9.284-20.793-20.591-22.507c-14.306-2.17-30.979-3.27-49.554-3.27
			c-14.527,0-28.027,0.671-38.656,1.431c17.379-11.309,39.756-19.679,66.718-24.91c7.8-1.514,14.139-6.547,17.393-13.81
			c3.23-7.208,2.747-15.565-1.293-22.356v0.001c-9.774-16.438-21.97-31.254-36.248-44.039c-4.399-3.94-10.09-6.11-16.024-6.11
			c-5.23,0-10.227,1.644-14.45,4.754c-24.869,18.32-48.746,43.841-63.675,61.075c4.293-20.286,14.198-42.028,29.563-64.792
			c4.444-6.585,5.367-14.627,2.533-22.063c-2.813-7.38-9.063-12.948-16.721-14.894c-18.467-4.692-37.705-6.556-56.772-5.508
			c-11.327,0.625-20.792,9.286-22.506,20.591c-4.632,30.536-3.468,65.469-1.839,88.21c-11.309-17.379-19.679-39.756-24.91-66.717
			c-2.195-11.313-12.189-19.524-23.763-19.524c-4.348,0-8.636,1.184-12.403,3.424c-16.437,9.778-31.252,21.973-44.037,36.249
			c-7.567,8.451-8.137,21.267-1.355,30.475c18.321,24.87,43.842,48.746,61.075,63.675c-20.285-4.293-42.027-14.197-64.791-29.563
			c-4-2.7-8.646-4.127-13.435-4.127c-11.11,0-20.783,7.532-23.523,18.315c-4.709,18.534-6.563,37.634-5.508,56.771
			c0.625,11.327,9.286,20.792,20.591,22.506c14.307,2.17,30.979,3.271,49.554,3.271c14.522,0,28.024-0.672,38.656-1.431
			c-17.379,11.309-39.756,19.679-66.718,24.91c-7.799,1.514-14.138,6.547-17.393,13.81c-3.23,7.208-2.747,15.565,1.292,22.356
			c9.778,16.437,21.974,31.252,36.249,44.037c4.4,3.939,10.091,6.109,16.024,6.109c5.231,0,10.228-1.644,14.451-4.754
			c24.87-18.321,48.746-43.841,63.674-61.074c-4.293,20.286-14.197,42.027-29.562,64.791c-4.445,6.585-5.368,14.627-2.534,22.064
			c2.813,7.38,9.064,12.948,16.722,14.894c15.13,3.844,30.734,5.793,46.384,5.793c3.448,0,6.942-0.096,10.387-0.286
			c11.327-0.625,20.792-9.286,22.506-20.591c4.63-30.537,3.468-65.47,1.839-88.21c11.308,17.38,19.679,39.756,24.911,66.717
			c2.194,11.313,12.188,19.525,23.763,19.526c4.347,0,8.635-1.184,12.402-3.424c16.436-9.777,31.252-21.973,44.036-36.249
			c7.569-8.451,8.139-21.268,1.355-30.475c-18.322-24.872-43.842-48.747-61.074-63.675c20.285,4.293,42.027,14.197,64.792,29.563
			c4,2.7,8.646,4.126,13.435,4.126c11.109,0,20.782-7.531,23.522-18.315C442.587,283.846,444.441,264.746,443.386,245.611z
			 M359.576,126.872c1.627-1.198,3.548-1.832,5.555-1.832c2.236,0,4.373,0.811,6.018,2.284
			c13.142,11.769,24.367,25.405,33.363,40.532c1.546,2.599,1.731,5.796,0.496,8.554c-1.249,2.786-3.579,4.639-6.562,5.218
			c-30.099,5.84-55.107,15.472-74.486,28.673c-6.686-9.91-15.481-18.282-25.735-24.476
			C312.665,169.142,335.757,144.419,359.576,126.872z M237.933,91.453c0.655-4.32,4.231-7.627,8.502-7.863
			c3.17-0.175,6.388-0.263,9.564-0.263c14.401,0,28.764,1.794,42.688,5.332c2.931,0.745,5.323,2.875,6.398,5.697
			c1.087,2.854,0.75,5.812-0.949,8.331c-17.146,25.401-28.017,49.886-32.39,72.914c-0.426-0.083-0.857-0.143-1.285-0.219
			c-0.795-0.142-1.587-0.289-2.39-0.408c-0.59-0.088-1.184-0.151-1.776-0.226c-0.731-0.092-1.459-0.194-2.196-0.266
			c-0.753-0.075-1.51-0.119-2.266-0.173c-0.585-0.041-1.166-0.098-1.755-0.127c-1.357-0.067-2.716-0.103-4.078-0.103
			c-1.262,0-2.519,0.038-3.774,0.096c-0.241,0.011-0.482,0.02-0.722,0.033c-1.176,0.064-2.348,0.154-3.517,0.268
			c-0.295,0.029-0.588,0.063-0.883,0.095c-1.047,0.114-2.091,0.245-3.131,0.399c-0.325,0.048-0.648,0.1-0.971,0.152
			c-0.905,0.146-1.807,0.308-2.707,0.485c-0.457,0.089-0.914,0.179-1.369,0.276c-0.9,0.193-1.798,0.397-2.691,0.62
			C234.65,154.493,233.499,120.692,237.933,91.453z M138.756,277.167c-17.823,0-33.738-1.043-47.304-3.101
			c-4.32-0.655-7.626-4.231-7.862-8.502c-0.971-17.615,0.734-35.194,5.068-52.251c1.048-4.126,4.743-7.009,8.985-7.009
			c1.788,0,3.531,0.539,5.043,1.56c25.402,17.146,49.886,28.017,72.914,32.39c-0.083,0.426-0.143,0.857-0.219,1.285
			c-0.142,0.795-0.289,1.587-0.408,2.39c-0.088,0.59-0.151,1.184-0.226,1.776c-0.092,0.731-0.194,1.459-0.266,2.196
			c-0.075,0.753-0.119,1.51-0.173,2.266c-0.041,0.585-0.098,1.166-0.127,1.755c-0.067,1.357-0.103,2.716-0.103,4.078
			c0,1.262,0.038,2.519,0.096,3.774c0.011,0.241,0.02,0.482,0.033,0.723c0.064,1.175,0.154,2.347,0.268,3.515
			c0.029,0.296,0.063,0.591,0.095,0.887c0.114,1.043,0.244,2.083,0.398,3.12c0.049,0.332,0.102,0.662,0.155,0.992
			c0.145,0.898,0.306,1.792,0.481,2.685c0.09,0.463,0.181,0.925,0.279,1.386c0.192,0.897,0.396,1.792,0.618,2.682
			C166.131,276.508,152.937,277.167,138.756,277.167z M126.872,152.423c-2.591-3.519-2.401-8.385,0.453-11.572
			c11.768-13.14,25.404-24.365,40.53-33.363c1.448-0.861,3.085-1.316,4.735-1.316c4.407,0,8.208,3.104,9.038,7.382
			c5.84,30.099,15.472,55.107,28.673,74.486c-9.91,6.686-18.283,15.481-24.476,25.735
			C169.143,199.336,144.419,176.242,126.872,152.423z M152.423,385.127c-1.626,1.198-3.547,1.832-5.555,1.832
			c-2.235,0-4.373-0.812-6.018-2.284c-13.14-11.768-24.365-25.404-33.364-40.531c-1.546-2.599-1.731-5.797-0.496-8.554
			c1.249-2.787,3.579-4.64,6.562-5.219c30.099-5.84,55.107-15.472,74.486-28.673c6.686,9.91,15.481,18.283,25.735,24.476
			C199.336,342.857,176.242,367.581,152.423,385.127z M274.067,420.547c-0.655,4.32-4.231,7.626-8.502,7.862
			c-17.54,0.967-35.256-0.75-52.251-5.068c-2.932-0.745-5.324-2.875-6.399-5.697c-1.087-2.854-0.75-5.812,0.95-8.331
			c17.146-25.402,28.017-49.886,32.389-72.914c0.417,0.082,0.838,0.139,1.256,0.215c0.804,0.144,1.606,0.292,2.417,0.413
			c0.597,0.089,1.197,0.153,1.797,0.229c0.723,0.091,1.444,0.192,2.173,0.264c0.766,0.076,1.536,0.121,2.305,0.176
			c0.573,0.04,1.142,0.096,1.719,0.125c1.357,0.067,2.717,0.104,4.08,0.104c1.262,0,2.52-0.038,3.775-0.096
			c0.24-0.011,0.481-0.02,0.721-0.033c1.177-0.064,2.35-0.154,3.519-0.268c0.294-0.029,0.586-0.062,0.879-0.094
			c1.049-0.114,2.095-0.245,3.138-0.4c0.321-0.047,0.64-0.099,0.96-0.15c0.908-0.146,1.813-0.309,2.715-0.486
			c0.456-0.089,0.912-0.178,1.365-0.275c0.9-0.193,1.799-0.397,2.693-0.62C277.35,357.507,278.5,391.308,274.067,420.547z
			 M292.052,312.338c-0.758,0.488-1.526,0.96-2.305,1.418c-0.033,0.019-0.066,0.038-0.099,0.057
			c-0.776,0.454-1.562,0.895-2.358,1.318c-0.011,0.006-0.022,0.014-0.033,0.02c-2.392,1.269-4.87,2.394-7.422,3.37
			c-0.008,0.003-0.017,0.005-0.025,0.008c-0.913,0.349-1.832,0.675-2.756,0.982c-0.063,0.021-0.125,0.043-0.188,0.064
			c-0.835,0.276-1.675,0.529-2.518,0.771c-0.193,0.055-0.386,0.112-0.58,0.165c-0.743,0.206-1.49,0.395-2.239,0.575
			c-0.316,0.075-0.632,0.149-0.95,0.22c-0.659,0.148-1.319,0.286-1.982,0.413c-0.427,0.082-0.856,0.157-1.285,0.23
			c-0.581,0.1-1.163,0.197-1.747,0.281c-0.534,0.077-1.071,0.141-1.609,0.205c-0.504,0.06-1.008,0.124-1.513,0.173
			c-0.662,0.064-1.33,0.108-1.997,0.152c-0.399,0.026-0.797,0.062-1.196,0.082c-1.077,0.052-2.16,0.082-3.25,0.082
			c-1.027,0-2.047-0.032-3.064-0.078c-0.311-0.014-0.622-0.034-0.933-0.052c-0.742-0.044-1.48-0.101-2.215-0.169
			c-0.31-0.029-0.621-0.054-0.931-0.087c-0.966-0.103-1.927-0.223-2.88-0.367c-0.276-0.042-0.55-0.095-0.826-0.14
			c-0.7-0.115-1.397-0.238-2.09-0.374c-0.401-0.079-0.8-0.163-1.199-0.25c-0.584-0.126-1.165-0.262-1.744-0.403
			c-0.395-0.097-0.791-0.189-1.185-0.293c-3.539-0.934-6.959-2.161-10.245-3.637c-0.014-0.007-0.028-0.015-0.042-0.022
			c-11.823-5.32-21.932-14.066-28.943-24.935c-0.016-0.025-0.032-0.051-0.049-0.076c-0.484-0.753-0.953-1.515-1.407-2.288
			c-0.023-0.04-0.045-0.08-0.069-0.119c-0.451-0.772-0.889-1.552-1.31-2.343c-0.006-0.011-0.013-0.02-0.018-0.031
			c-1.269-2.392-2.394-4.87-3.371-7.422c-0.003-0.009-0.005-0.019-0.009-0.028c-0.35-0.916-0.677-1.838-0.986-2.765
			c-0.019-0.058-0.04-0.115-0.059-0.173c-0.277-0.839-0.531-1.683-0.774-2.53c-0.054-0.19-0.109-0.378-0.162-0.569
			c-0.207-0.746-0.397-1.496-0.577-2.248c-0.075-0.313-0.148-0.627-0.218-0.941c-0.148-0.661-0.286-1.324-0.414-1.989
			c-0.081-0.425-0.156-0.851-0.229-1.279c-0.1-0.583-0.197-1.167-0.282-1.753c-0.076-0.532-0.141-1.068-0.204-1.604
			c-0.06-0.505-0.124-1.01-0.173-1.517c-0.063-0.661-0.108-1.328-0.152-1.995c-0.026-0.4-0.063-0.798-0.082-1.198
			c-0.052-1.077-0.082-2.16-0.082-3.249c0-1.027,0.032-2.047,0.078-3.063c0.014-0.312,0.034-0.623,0.052-0.935
			c0.044-0.74,0.101-1.477,0.169-2.211c0.029-0.312,0.054-0.624,0.087-0.935c0.103-0.965,0.223-1.924,0.367-2.877
			c0.042-0.28,0.096-0.558,0.142-0.837c0.114-0.696,0.237-1.389,0.372-2.078c0.079-0.403,0.164-0.804,0.251-1.206
			c0.126-0.582,0.261-1.16,0.402-1.737c0.097-0.397,0.19-0.795,0.295-1.19c0.934-3.539,2.161-6.958,3.636-10.243
			c0.007-0.014,0.015-0.028,0.022-0.042c5.32-11.823,14.066-21.932,24.935-28.943c0.025-0.016,0.051-0.032,0.076-0.049
			c0.753-0.484,1.515-0.953,2.288-1.407c0.04-0.023,0.08-0.045,0.119-0.069c0.772-0.451,1.552-0.889,2.343-1.31
			c0.011-0.006,0.02-0.013,0.031-0.018c2.39-1.268,4.866-2.393,7.416-3.368c0.011-0.004,0.022-0.007,0.034-0.011
			c0.916-0.35,1.838-0.677,2.765-0.986c0.058-0.019,0.115-0.04,0.173-0.059c0.839-0.277,1.683-0.531,2.53-0.774
			c0.19-0.054,0.378-0.109,0.569-0.162c0.746-0.207,1.496-0.397,2.248-0.577c0.313-0.075,0.627-0.148,0.941-0.218
			c0.661-0.148,1.324-0.286,1.989-0.414c0.425-0.081,0.851-0.156,1.279-0.229c0.583-0.1,1.167-0.197,1.753-0.282
			c0.532-0.076,1.068-0.141,1.604-0.204c0.505-0.06,1.01-0.124,1.517-0.173c0.661-0.063,1.328-0.108,1.995-0.152
			c0.4-0.026,0.798-0.063,1.198-0.082c1.077-0.052,2.16-0.082,3.249-0.082c1.027,0,2.047,0.032,3.063,0.078
			c0.312,0.014,0.623,0.034,0.935,0.052c0.74,0.044,1.477,0.101,2.211,0.169c0.312,0.029,0.624,0.054,0.935,0.087
			c0.965,0.103,1.924,0.223,2.877,0.367c0.28,0.042,0.558,0.096,0.837,0.142c0.696,0.114,1.389,0.237,2.078,0.372
			c0.403,0.079,0.804,0.164,1.206,0.251c0.582,0.126,1.16,0.261,1.737,0.402c0.397,0.097,0.795,0.19,1.19,0.295
			c3.539,0.934,6.958,2.161,10.243,3.636c0.014,0.007,0.028,0.015,0.042,0.022c11.823,5.32,21.932,14.066,28.943,24.935
			c0.016,0.025,0.032,0.051,0.049,0.076c0.484,0.753,0.953,1.515,1.407,2.288c0.023,0.04,0.045,0.08,0.069,0.119
			c0.451,0.772,0.889,1.552,1.31,2.343c0.006,0.011,0.013,0.02,0.018,0.031c1.269,2.392,2.394,4.87,3.371,7.422
			c0.003,0.009,0.005,0.019,0.009,0.028c0.35,0.915,0.676,1.836,0.985,2.762c0.02,0.06,0.041,0.119,0.06,0.178
			c0.276,0.837,0.53,1.68,0.773,2.525c0.055,0.191,0.111,0.382,0.163,0.574c0.206,0.745,0.396,1.493,0.576,2.244
			c0.075,0.314,0.148,0.629,0.219,0.945c0.148,0.66,0.286,1.322,0.414,1.986c0.081,0.425,0.156,0.853,0.229,1.281
			c0.1,0.582,0.197,1.166,0.282,1.751c0.077,0.533,0.141,1.069,0.205,1.606c0.06,0.505,0.124,1.009,0.173,1.516
			c0.064,0.662,0.108,1.329,0.152,1.996c0.026,0.399,0.062,0.798,0.082,1.198c0.052,1.077,0.082,2.16,0.082,3.25
			c0,1.027-0.032,2.047-0.078,3.063c-0.014,0.312-0.034,0.623-0.052,0.935c-0.044,0.74-0.101,1.477-0.169,2.211
			c-0.029,0.312-0.054,0.624-0.087,0.935c-0.103,0.965-0.223,1.924-0.367,2.877c-0.042,0.28-0.096,0.558-0.142,0.837
			c-0.114,0.696-0.237,1.389-0.372,2.078c-0.079,0.403-0.164,0.804-0.251,1.206c-0.126,0.582-0.261,1.16-0.402,1.737
			c-0.097,0.397-0.19,0.795-0.295,1.19c-0.934,3.539-2.161,6.958-3.636,10.243c-0.007,0.014-0.015,0.028-0.022,0.042
			c-5.322,11.825-14.07,21.938-24.944,28.949C292.089,312.314,292.07,312.326,292.052,312.338z M385.127,359.577
			c2.592,3.518,2.401,8.385-0.453,11.572c-11.768,13.141-25.404,24.366-40.529,33.363c-1.448,0.861-3.086,1.316-4.736,1.316
			c-4.407,0-8.208-3.104-9.037-7.382c-5.841-30.099-15.473-55.107-28.673-74.486c9.91-6.686,18.282-15.481,24.475-25.735
			C342.857,312.663,367.58,335.756,385.127,359.577z M423.342,298.685c-1.049,4.127-4.744,7.009-8.985,7.009
			c-1.787,0-3.531-0.54-5.042-1.56c-25.403-17.146-49.887-28.017-72.914-32.39c0.084-0.43,0.144-0.864,0.221-1.295
			c0.141-0.79,0.287-1.577,0.405-2.375c0.09-0.604,0.155-1.211,0.232-1.817c0.09-0.718,0.19-1.433,0.262-2.157
			c0.076-0.765,0.121-1.534,0.176-2.302c0.04-0.575,0.096-1.145,0.125-1.722c0.067-1.357,0.104-2.717,0.104-4.08
			c0-1.262-0.038-2.519-0.096-3.774c-0.011-0.241-0.02-0.482-0.033-0.723c-0.064-1.175-0.154-2.347-0.268-3.515
			c-0.029-0.296-0.063-0.591-0.095-0.887c-0.114-1.043-0.244-2.083-0.398-3.12c-0.049-0.332-0.102-0.662-0.155-0.992
			c-0.145-0.898-0.306-1.793-0.481-2.685c-0.09-0.463-0.181-0.925-0.279-1.385c-0.192-0.897-0.396-1.792-0.618-2.683
			c10.364-0.739,23.556-1.399,37.739-1.399c17.825,0,33.741,1.043,47.306,3.1c4.32,0.655,7.626,4.231,7.862,8.502
			C429.381,264.048,427.676,281.627,423.342,298.685z"/>
	</g>
</g>
<g>
</g>
<g>
</g>
<g>
</g>
<g>
</g>
<g>
</g>
<g>
</g>
<g>
</g>
<g>
</g>
<g>
</g>
<g>
</g>
<g>
</g>
<g>
</g>
<g>
</g>
<g>
</g>
<g>
</g>
</svg>
