<?xml version="1.0" encoding="iso-8859-1"?>
<!-- Generator: Adobe Illustrator 19.0.0, SVG Export Plug-In . SVG Version: 6.00 Build 0)  -->
<svg version="1.1" id="Capa_1" xmlns="http://www.w3.org/2000/svg" xmlns:xlink="http://www.w3.org/1999/xlink" x="0px" y="0px"
	 viewBox="0 0 511.997 511.998" style="enable-background:new 0 0 511.997 511.998;" xml:space="preserve">
<g>
	<g>
		<path d="M229.268,239.444L213.424,223.6c-7.041-7.041-18.498-7.041-25.539,0l-46.746,46.746c-7.041,7.041-7.041,18.498,0,25.54
			l15.843,15.843c7.041,7.041,18.498,7.041,25.54,0l46.746-46.746C236.308,257.942,236.308,246.485,229.268,239.444z
			 M218.618,254.334l-46.746,46.746c-1.169,1.169-3.072,1.169-4.241,0l-15.843-15.843c-1.169-1.169-1.169-3.072,0-4.241
			l46.746-46.746c1.169-1.169,3.071-1.169,4.241,0l15.843,15.843C219.787,251.262,219.787,253.165,218.618,254.334z"/>
	</g>
</g>
<g>
	<g>
		<path d="M297,307.177l-15.843-15.843c-7.042-7.043-18.499-7.043-25.54-0.002l-46.746,46.747c-7.041,7.041-7.041,18.498,0,25.54
			l15.843,15.843c7.041,7.041,18.498,7.041,25.54,0L297,332.716C304.04,325.675,304.04,314.218,297,307.177z M286.349,322.066
			l-46.746,46.746c-1.169,1.169-3.072,1.169-4.241,0l-15.843-15.843c-1.169-1.169-1.169-3.072,0-4.241l46.746-46.746
			c1.169-1.169,3.071-1.169,4.241,0l15.843,15.843C287.518,318.994,287.518,320.897,286.349,322.066z"/>
	</g>
</g>
<g>
	<g>
		<path d="M422.511,76.762l-56.69-56.69c-12.896-12.897-33.88-12.897-46.777-0.001L119.659,219.457
			c-2.941,2.941-2.941,7.709,0,10.649c2.941,2.94,7.709,2.941,10.649,0L329.695,30.721c7.024-7.024,18.454-7.024,25.478,0
			l56.69,56.69c2.941,2.941,7.709,2.941,10.649,0C425.451,84.47,425.453,79.702,422.511,76.762z"/>
	</g>
</g>
<g>
	<g>
		<path d="M411.593,110.807c-37.24-37.24-97.835-37.241-135.075,0c-37.24,37.241-37.24,97.835,0,135.075s97.835,37.24,135.075,0
			C448.833,208.642,448.833,148.047,411.593,110.807z M400.943,235.232c-31.369,31.368-82.408,31.369-113.776,0.001
			c-31.368-31.368-31.368-82.408,0-113.777c31.368-31.369,82.408-31.368,113.776,0C432.312,152.824,432.313,203.864,400.943,235.232
			z"/>
	</g>
</g>
<g>
	<g>
		<path d="M407.148,149.71c-12.06-18.195-22.501-26.724-31.917-26.072c-9.335,0.645-19.506,8.918-31.023,25.238
			c-0.615-0.003-1.229,0.015-1.843,0.05c-4.882-10.127-7.099-20.06-8.025-25.486c-0.702-4.117-3.409-7.564-7.242-9.223
			c-3.833-1.658-8.199-1.271-11.68,1.036c-18.194,12.06-26.724,22.501-26.073,31.917c0.646,9.336,8.918,19.509,25.238,31.023
			c-0.003,0.615,0.015,1.229,0.05,1.843c-10.125,4.881-20.06,7.098-25.486,8.025c-4.117,0.703-7.563,3.409-9.223,7.243
			c-1.658,3.833-1.27,8.199,1.037,11.679c12.061,18.196,22.501,26.724,31.917,26.072c6-0.415,12.346-3.977,19.171-10.803
			c3.792-3.792,7.736-8.608,11.847-14.434c0.616,0.003,1.232-0.015,1.847-0.049c4.882,10.126,7.098,20.06,8.024,25.487
			c0.703,4.117,3.41,7.564,7.243,9.222s8.198,1.271,11.679-1.036c6.918-4.586,12.439-8.937,16.589-13.087
			c6.767-6.769,9.89-12.998,9.486-18.834c-0.646-9.336-8.918-19.508-25.238-31.022c0.003-0.615-0.015-1.229-0.05-1.843
			c10.125-4.881,20.06-7.098,25.487-8.024c2.556-0.436,4.854-1.646,6.626-3.418c1.082-1.082,1.967-2.373,2.595-3.825
			C409.841,157.556,409.455,153.19,407.148,149.71z M304.372,146.162c0.026-0.824,1.198-3.25,5.014-7.066
			c2.431-2.431,5.938-5.429,10.904-8.934c1.39,6.653,3.727,14.942,7.647,23.489c-1.675,1.094-3.264,2.373-4.734,3.843
			c-0.07,0.07-0.135,0.144-0.205,0.215c-0.042,0.043-0.083,0.088-0.125,0.132c-0.32,0.33-0.631,0.664-0.932,1.005
			c-0.074,0.084-0.146,0.171-0.219,0.256c-0.261,0.302-0.516,0.607-0.763,0.917c-0.101,0.127-0.198,0.256-0.297,0.384
			c-0.208,0.271-0.413,0.544-0.61,0.821c-0.118,0.165-0.234,0.333-0.348,0.5c-0.169,0.247-0.334,0.496-0.495,0.747
			c-0.063,0.098-0.131,0.192-0.192,0.29C308.645,154.805,304.568,148.986,304.372,146.162z M311.872,218.028
			c-1.349-0.044-6.992-3.158-16-15.919c6.653-1.39,14.942-3.728,23.488-7.647c1.094,1.675,2.373,3.264,3.843,4.734
			c0.383,0.383,0.775,0.751,1.173,1.108c0.127,0.114,0.259,0.221,0.388,0.333c0.276,0.239,0.552,0.476,0.834,0.703
			c0.159,0.128,0.321,0.249,0.482,0.373c0.261,0.201,0.522,0.399,0.788,0.59c0.174,0.125,0.351,0.247,0.528,0.368
			c0.262,0.179,0.525,0.355,0.791,0.525c0.095,0.061,0.186,0.127,0.282,0.187C320.516,213.751,314.697,217.831,311.872,218.028z
			 M358.241,180.926c-0.042,0.23-0.096,0.456-0.149,0.682c-0.042,0.183-0.084,0.366-0.133,0.547
			c-0.057,0.211-0.121,0.419-0.187,0.626c-0.067,0.208-0.14,0.414-0.216,0.619c-0.067,0.18-0.132,0.361-0.206,0.538
			c-0.139,0.332-0.291,0.661-0.456,0.984c-0.055,0.109-0.115,0.215-0.173,0.322c-0.166,0.304-0.341,0.604-0.53,0.898
			c-0.078,0.122-0.161,0.24-0.243,0.359c-0.174,0.253-0.356,0.501-0.547,0.745c-0.084,0.107-0.167,0.215-0.254,0.319
			c-0.28,0.336-0.571,0.666-0.886,0.981c-0.317,0.317-0.649,0.61-0.987,0.892c-0.067,0.056-0.133,0.112-0.201,0.166
			c-0.338,0.271-0.684,0.527-1.039,0.764c-0.044,0.029-0.091,0.056-0.135,0.085c-0.311,0.201-0.629,0.386-0.951,0.562
			c-0.099,0.053-0.197,0.109-0.297,0.16c-0.332,0.17-0.67,0.326-1.012,0.469c-0.173,0.072-0.351,0.136-0.527,0.201
			c-0.178,0.066-0.357,0.128-0.537,0.187c-0.213,0.069-0.426,0.139-0.644,0.2c-2.105,0.583-4.315,0.683-6.456,0.296
			c-0.225-0.041-0.445-0.094-0.666-0.145c-0.188-0.043-0.376-0.086-0.562-0.137c-0.208-0.057-0.414-0.119-0.619-0.185
			c-0.21-0.067-0.418-0.141-0.625-0.218c-0.179-0.067-0.359-0.132-0.534-0.205c-0.333-0.14-0.663-0.292-0.987-0.457
			c-0.108-0.055-0.213-0.114-0.319-0.171c-0.305-0.166-0.605-0.342-0.899-0.531c-0.121-0.078-0.24-0.161-0.359-0.243
			c-0.253-0.174-0.501-0.356-0.745-0.547c-0.107-0.084-0.215-0.167-0.319-0.254c-0.336-0.28-0.666-0.571-0.981-0.886
			c-0.317-0.317-0.61-0.649-0.892-0.987c-0.056-0.067-0.111-0.133-0.166-0.201c-0.271-0.338-0.528-0.684-0.764-1.04
			c-0.029-0.044-0.055-0.09-0.084-0.134c-0.202-0.312-0.387-0.631-0.563-0.954c-0.053-0.098-0.108-0.195-0.159-0.295
			c-0.171-0.333-0.327-0.672-0.47-1.014c-0.071-0.171-0.134-0.347-0.199-0.522c-0.067-0.181-0.13-0.362-0.19-0.545
			c-0.069-0.211-0.138-0.422-0.198-0.637c-0.584-2.108-0.684-4.32-0.296-6.464c0.04-0.218,0.092-0.432,0.141-0.646
			c0.045-0.196,0.09-0.391,0.142-0.585c0.055-0.203,0.117-0.404,0.18-0.604c0.069-0.216,0.145-0.429,0.224-0.642
			c0.065-0.175,0.128-0.35,0.2-0.521c0.143-0.341,0.298-0.679,0.468-1.011c0.05-0.098,0.105-0.194,0.157-0.291
			c0.167-0.308,0.345-0.611,0.536-0.908c0.078-0.121,0.16-0.238,0.242-0.357c0.174-0.253,0.357-0.502,0.548-0.747
			c0.084-0.107,0.166-0.214,0.253-0.319c0.28-0.336,0.571-0.666,0.887-0.981c0.317-0.317,0.649-0.611,0.987-0.892
			c0.067-0.056,0.133-0.111,0.201-0.166c0.338-0.271,0.684-0.528,1.04-0.764c0.043-0.029,0.088-0.054,0.132-0.083
			c0.313-0.203,0.633-0.389,0.958-0.565c0.097-0.052,0.192-0.106,0.29-0.156c0.335-0.172,0.675-0.329,1.02-0.473
			c0.167-0.069,0.338-0.13,0.508-0.193c0.187-0.07,0.376-0.136,0.566-0.198c0.205-0.067,0.41-0.134,0.62-0.192
			c2.108-0.585,4.32-0.686,6.464-0.299c0.225,0.041,0.446,0.095,0.668,0.146c0.188,0.043,0.377,0.086,0.564,0.137
			c0.207,0.056,0.411,0.118,0.614,0.183c0.213,0.068,0.424,0.143,0.634,0.221c0.176,0.066,0.353,0.129,0.526,0.202
			c0.341,0.143,0.678,0.298,1.01,0.468c0.098,0.05,0.194,0.105,0.291,0.157c0.308,0.167,0.611,0.345,0.909,0.536
			c0.121,0.077,0.238,0.16,0.356,0.241c0.254,0.174,0.503,0.357,0.747,0.549c0.107,0.084,0.214,0.166,0.318,0.253
			c0.336,0.28,0.666,0.571,0.981,0.887c0.314,0.317,0.607,0.648,0.889,0.986c0.056,0.067,0.111,0.133,0.166,0.201
			c0.271,0.338,0.528,0.684,0.764,1.04c0.029,0.044,0.055,0.09,0.084,0.134c0.202,0.312,0.388,0.631,0.564,0.955
			c0.053,0.098,0.107,0.194,0.158,0.293c0.171,0.334,0.328,0.673,0.471,1.017c0.07,0.169,0.132,0.342,0.196,0.514
			c0.069,0.185,0.133,0.371,0.195,0.558c0.067,0.207,0.135,0.414,0.194,0.626C358.526,176.573,358.627,178.784,358.241,180.926z
			 M383.739,210.527c-0.043,1.349-3.156,6.99-15.919,16.001c-1.39-6.653-3.726-14.941-7.646-23.489
			c1.675-1.094,3.264-2.373,4.734-3.843c0.068-0.068,0.131-0.14,0.199-0.209c0.051-0.052,0.1-0.106,0.151-0.159
			c0.311-0.321,0.614-0.647,0.907-0.979c0.08-0.091,0.157-0.184,0.237-0.276c0.255-0.296,0.505-0.594,0.746-0.897
			c0.105-0.132,0.206-0.266,0.309-0.4c0.204-0.266,0.405-0.534,0.599-0.805c0.121-0.169,0.239-0.34,0.356-0.512
			c0.167-0.245,0.33-0.491,0.489-0.739c0.063-0.099,0.132-0.194,0.194-0.293C379.464,201.884,383.542,207.703,383.739,210.527z
			 M368.748,162.226c-1.094-1.675-2.373-3.264-3.843-4.734c-0.383-0.383-0.775-0.751-1.173-1.108
			c-0.128-0.114-0.26-0.222-0.389-0.334c-0.275-0.238-0.551-0.475-0.833-0.702c-0.16-0.128-0.323-0.25-0.485-0.375
			c-0.26-0.2-0.52-0.398-0.785-0.588c-0.176-0.126-0.353-0.248-0.532-0.37c-0.261-0.179-0.523-0.353-0.788-0.522
			c-0.096-0.061-0.187-0.128-0.283-0.188c7.956-10.368,13.777-14.447,16.6-14.644c1.35,0.043,6.991,3.157,16,15.919
			C385.584,155.97,377.296,158.307,368.748,162.226z"/>
	</g>
</g>
<g>
	<g>
		<path d="M486.518,219.161l15.808-15.808c12.896-12.896,12.896-33.88,0-46.777l-51.418-51.418
			c-2.938-2.939-7.706-2.939-10.646,0.002c-2.941,2.941-2.941,7.709,0,10.649l51.418,51.418c7.024,7.024,7.024,18.454,0,25.478
			l-21.133,21.133L355.177,329.207l-29.233,29.233l-63.554,63.554l-16.319,16.319L84.087,276.328l17.834-17.834
			c2.941-2.941,2.941-7.709,0-10.649c-2.941-2.941-7.709-2.941-10.649,0l-17.835,17.834l-10.167-10.166
			c-7.224-7.224-18.978-7.224-26.202,0L4.225,288.355c-5.634,5.634-5.634,14.801,0,20.435l9.654,9.654
			c5.634,5.634,14.801,5.634,20.435,0l15.856-15.855l22.091,22.091l-9.896,9.896c-5.737,5.737-5.737,15.072,0,20.809L98.6,391.619
			c5.737,5.737,15.072,5.737,20.809,0l9.896-9.896l10.497,10.497l-9.896,9.896c-5.737,5.737-5.737,15.072,0,20.809l36.234,36.234
			c5.737,5.737,15.072,5.737,20.809,0l9.896-9.896l48.109,48.109c5.634,5.634,14.801,5.634,20.435,0l9.654-9.654
			c5.634-5.634,5.634-14.801,0-20.435l-18.323-18.323l10.995-10.995l12.953,12.953c5.326,5.326,13.994,5.326,19.32,0l54.883-54.883
			c5.326-5.326,5.326-13.994,0-19.32l-12.953-12.953l18.583-18.583l12.953,12.953c5.326,5.326,13.993,5.326,19.319,0
			l106.698-106.698c5.326-5.326,5.327-13.993,0-19.32L486.518,219.161z M109.005,380.725L73.26,344.98l9.651-9.651l35.745,35.745
			L109.005,380.725z M176.545,448.266L140.8,412.52l9.651-9.651l35.745,35.746L176.545,448.266z M263.961,477.502l-8.79,8.79
			L202.17,433.29l-46.394-46.394l-21.147-21.147l-46.394-46.394l-32.74-32.74c-2.941-2.941-7.709-2.941-10.649,0l-20.748,20.748
			l-8.79-8.79l32.412-32.412c1.352-1.352,3.551-1.352,4.903,0l15.49,15.492l172.634,172.634L263.961,477.502z M290.328,439.282
			l-11.964-11.964l10.266-10.266l11.964,11.964L290.328,439.282z M311.245,418.366l-11.964-11.964l11.073-11.073l11.964,11.964
			L311.245,418.366z M343.232,386.377l-10.266,10.266l-11.964-11.964l10.266-10.266L343.232,386.377z M383.115,346.495
			l-11.964-11.964l10.909-10.909l11.964,11.964L383.115,346.495z M404.674,324.937l-11.964-11.964l13.434-13.434l11.964,11.964
			L404.674,324.937z M428.758,300.853l-11.964-11.964l13.434-13.434l11.964,11.964L428.758,300.853z M452.841,276.769
			l-11.964-11.964l13.434-13.434l11.964,11.964L452.841,276.769z M476.924,252.685l-11.964-11.964l10.909-10.909l11.964,11.964
			L476.924,252.685z"/>
	</g>
</g>
<g>
</g>
<g>
</g>
<g>
</g>
<g>
</g>
<g>
</g>
<g>
</g>
<g>
</g>
<g>
</g>
<g>
</g>
<g>
</g>
<g>
</g>
<g>
</g>
<g>
</g>
<g>
</g>
<g>
</g>
</svg>
