<?xml version="1.0" encoding="iso-8859-1"?>
<!-- Generator: Adobe Illustrator 19.0.0, SVG Export Plug-In . SVG Version: 6.00 Build 0)  -->
<svg version="1.1" id="Capa_1" xmlns="http://www.w3.org/2000/svg" xmlns:xlink="http://www.w3.org/1999/xlink" x="0px" y="0px"
	 viewBox="0 0 512.001 512.001" style="enable-background:new 0 0 512.001 512.001;" xml:space="preserve">
<g>
	<g>
		<circle cx="429.5" cy="169.47" r="9.734"/>
	</g>
</g>
<g>
	<g>
		<circle cx="429.5" cy="337.16" r="9.734"/>
	</g>
</g>
<g>
	<g>
		<circle cx="261.81" cy="169.47" r="9.734"/>
	</g>
</g>
<g>
	<g>
		<circle cx="261.81" cy="337.16" r="9.734"/>
	</g>
</g>
<g>
	<g>
		<path d="M166.562,116.9c4.228,0,7.655-3.427,7.655-7.655c0-4.228-3.427-7.655-7.655-7.655h-10.618V84.61h10.618
			c4.228,0,7.655-3.427,7.655-7.655c0-4.228-3.427-7.655-7.655-7.655h-10.618v-1.796c-0.001-8.386-6.821-15.207-15.205-15.207
			H89.374c-8.384,0-15.204,6.821-15.204,15.205v1.796H63.552c-4.228,0-7.655,3.427-7.655,7.655c0,4.228,3.427,7.655,7.655,7.655
			h10.619v16.98H63.552c-4.228,0-7.655,3.427-7.655,7.655c0,4.228,3.427,7.655,7.655,7.655h10.619v16.98H63.552
			c-4.228,0-7.655,3.427-7.655,7.655c0,4.228,3.427,7.655,7.655,7.655h10.619v16.98H63.552c-4.228,0-7.655,3.427-7.655,7.655
			c0,4.228,3.427,7.655,7.655,7.655h10.619v16.98H63.552c-4.228,0-7.655,3.427-7.655,7.655c0,4.228,3.427,7.655,7.655,7.655h10.619
			v16.98H63.552c-4.228,0-7.655,3.427-7.655,7.655c0,4.228,3.427,7.655,7.655,7.655h10.619v16.979H63.552
			c-4.228,0-7.655,3.427-7.655,7.655c0,4.228,3.427,7.655,7.655,7.655h10.619v16.98H63.552c-4.228,0-7.655,3.427-7.655,7.655
			c0,4.228,3.427,7.655,7.655,7.655h10.619v5.8c0,8.384,6.82,15.204,15.204,15.204h51.364c8.384,0,15.205-6.82,15.205-15.204v-5.8
			h10.618c4.228,0,7.655-3.427,7.655-7.655c0-4.228-3.427-7.655-7.655-7.655h-10.618v-16.98h10.618c4.228,0,7.655-3.427,7.655-7.655
			c0-4.228-3.427-7.655-7.655-7.655h-10.618V246.06h10.618c4.228,0,7.655-3.427,7.655-7.655c0-4.228-3.427-7.655-7.655-7.655
			h-10.618v-16.98h10.618c4.228,0,7.655-3.427,7.655-7.655c0-4.228-3.427-7.655-7.655-7.655h-10.618v-16.98h10.618
			c4.228,0,7.655-3.427,7.655-7.655c0-4.228-3.427-7.655-7.655-7.655h-10.618v-16.98h10.618c4.228,0,7.655-3.427,7.655-7.655
			c0-4.228-3.427-7.655-7.655-7.655h-10.618V116.9H166.562z M89.481,316.441l-7.655-0.001L89.481,316.441L89.481,316.441z
			 M140.633,316.333H89.481V67.608h51.152V316.333z"/>
	</g>
</g>
<g>
	<g>
		<path d="M482.067,19.564h-52.662v-5.908c0-6.652-5.411-12.064-12.064-12.064H289.337c-6.652,0-12.064,5.411-12.064,12.064v5.908
			h-24.047v-5.908c0-6.652-5.411-12.064-12.064-12.064h-30.506c-6.652,0-12.064,5.411-12.064,12.064v5.908h-68.284
			c-4.228,0-7.655,3.427-7.655,7.655c0,4.228,3.427,7.655,7.655,7.655h68.284v9.288c0,6.652,5.411,12.064,12.064,12.064h30.506
			c6.652,0,12.064-5.411,12.064-12.064v-9.288h24.047v9.288c0,6.652,5.411,12.064,12.064,12.064h128.004
			c6.652,0,12.064-5.411,12.064-12.064v-9.288h52.662c8.063,0,14.623,6.56,14.623,14.623v430.979c0,8.063-6.56,14.623-14.623,14.623
			H51.088c-8.063,0-14.623-6.56-14.623-14.623v-8.683h8.326c6.821,0,12.37-5.549,12.37-12.37v-72.575
			c0-6.821-5.549-12.37-12.37-12.37h-8.326V49.497c0-8.063,6.56-14.623,14.623-14.623h38.393c4.228,0,7.655-3.427,7.655-7.655
			c0-4.228-3.427-7.655-7.655-7.655H51.088c-16.505,0-29.933,13.427-29.933,29.933v324.981H12.37c-6.821,0-12.37,5.549-12.37,12.37
			v72.575c0,6.821,5.549,12.37,12.37,12.37h8.786v8.683c0,16.505,13.427,29.933,29.933,29.933h430.979
			c16.505,0,29.933-13.427,29.933-29.933V49.497C512,32.991,498.573,19.564,482.067,19.564z M237.916,40.915h-24.013V16.902h24.013
			V40.915z M414.094,40.915H292.583V16.902h121.511V40.915z M15.31,456.482v-66.694h26.541v66.693
			C41.844,456.481,15.317,456.482,15.31,456.482z"/>
	</g>
</g>
<g>
	<g>
		<path d="M345.65,160.715c-50.452,0-91.499,41.047-91.499,91.499s41.047,91.498,91.499,91.498
			c50.452,0,91.499-41.046,91.499-91.498S396.102,160.715,345.65,160.715z M345.65,328.402c-42.011,0-76.189-34.178-76.189-76.188
			c0-42.011,34.179-76.189,76.189-76.189c42.011,0,76.189,34.178,76.189,76.189C421.839,294.224,387.661,328.402,345.65,328.402z"/>
	</g>
</g>
<g>
	<g>
		<path d="M409.876,234.81c-7.718-6.718-22.298-7.972-44.489-3.81c3.908-12.254,10.215-22.262,13.902-27.467
			c2.497-3.523,3.038-8.022,1.448-12.037c-1.591-4.015-5.067-6.924-9.296-7.781c-22.572-4.578-36.703-3.181-43.194,4.276
			c-6.719,7.719-7.973,22.298-3.81,44.488c-12.255-3.907-22.262-10.214-27.468-13.904c-3.523-2.494-8.023-3.035-12.036-1.446
			c-4.014,1.59-6.923,5.065-7.782,9.297c-4.578,22.574-3.178,36.702,4.276,43.192c4.76,4.143,12.125,6.209,22.273,6.209
			c6.311,0,13.711-0.808,22.217-2.403c-3.908,12.256-10.216,22.266-13.904,27.473c-2.495,3.523-3.036,8.022-1.446,12.037
			c1.59,4.013,5.065,6.923,9.296,7.781c8.624,1.748,16.012,2.625,22.216,2.625c10.035-0.001,16.966-2.295,20.976-6.902
			c6.72-7.718,7.975-22.298,3.811-44.489c12.257,3.909,22.262,10.215,27.468,13.904c2.188,1.549,4.752,2.345,7.342,2.345
			c1.581,0,3.173-0.297,4.694-0.899c4.014-1.59,6.923-5.065,7.782-9.296C418.73,255.43,417.332,241.301,409.876,234.81z
			 M291.486,258.077c-1.037-1.01-3.075-7.672-0.064-24.746c6.639,4.387,15.587,9.385,26.116,13.002
			c-0.395,1.889-0.605,3.844-0.607,5.847c0,0.011-0.001,0.023-0.001,0.034c0,0,0,0,0,0.001c0,0,0,0,0,0.001
			c0,0.554,0.02,1.104,0.051,1.65c0.01,0.187,0.028,0.372,0.042,0.557c0.027,0.358,0.059,0.715,0.099,1.07
			c0.025,0.222,0.054,0.444,0.085,0.665c0.044,0.318,0.094,0.634,0.148,0.949c0.04,0.23,0.078,0.46,0.123,0.688
			c0.064,0.325,0.138,0.645,0.213,0.966c0.04,0.171,0.071,0.345,0.114,0.515C302.32,261.619,294.001,260.267,291.486,258.077z
			 M351.512,306.376c-1.01,1.039-7.67,3.077-24.747,0.066c4.389-6.64,9.387-15.588,13.004-26.117c1.558,0.326,3.162,0.519,4.8,0.58
			c0.078,0.003,0.155,0.004,0.233,0.006c0.283,0.008,0.564,0.021,0.848,0.021c0.162,0,0.321-0.01,0.483-0.012
			c0.117-0.002,0.234-0.006,0.351-0.009c0.404-0.012,0.807-0.031,1.207-0.059c0.143-0.01,0.286-0.021,0.428-0.033
			c0.366-0.031,0.73-0.071,1.092-0.116c0.173-0.021,0.345-0.042,0.517-0.066c0.317-0.045,0.631-0.099,0.945-0.154
			c0.21-0.037,0.421-0.071,0.629-0.113c0.26-0.052,0.517-0.113,0.774-0.172c0.211-0.048,0.425-0.088,0.634-0.141
			C355.055,295.542,353.701,303.862,351.512,306.376z M359.059,252.217c0,0.396-0.026,0.786-0.06,1.174
			c-0.012,0.134-0.026,0.268-0.042,0.402c-0.03,0.257-0.072,0.511-0.117,0.764c-0.058,0.32-0.127,0.638-0.208,0.953
			c-0.029,0.113-0.056,0.226-0.087,0.337c-0.075,0.263-0.157,0.524-0.249,0.782c-0.007,0.02-0.015,0.041-0.022,0.061
			c-0.302,0.841-0.688,1.656-1.157,2.432c-0.008,0.014-0.014,0.029-0.023,0.043c-0.862,1.413-1.973,2.653-3.279,3.66
			c-0.008,0.006-0.016,0.01-0.024,0.016c-1.074,0.824-2.241,1.462-3.469,1.924c-0.166,0.062-0.33,0.127-0.499,0.183
			c-0.178,0.059-0.36,0.109-0.54,0.16c-0.225,0.063-0.451,0.123-0.68,0.175c-0.16,0.036-0.321,0.07-0.483,0.1
			c-0.268,0.05-0.539,0.091-0.813,0.124c-0.136,0.017-0.27,0.037-0.406,0.05c-0.413,0.038-0.829,0.063-1.251,0.063
			c-0.397,0-0.789-0.026-1.177-0.06c-0.133-0.012-0.267-0.026-0.4-0.042c-0.259-0.031-0.515-0.073-0.769-0.118
			c-0.315-0.057-0.627-0.125-0.937-0.205c-0.117-0.03-0.236-0.058-0.352-0.091c-0.261-0.075-0.52-0.156-0.776-0.247
			c-0.024-0.008-0.047-0.018-0.071-0.026c-0.839-0.302-1.652-0.687-2.426-1.155c-0.014-0.008-0.028-0.014-0.042-0.022
			c-1.409-0.859-2.646-1.966-3.652-3.266c-0.009-0.012-0.016-0.026-0.025-0.038c-0.825-1.074-1.464-2.243-1.927-3.472
			c-0.062-0.164-0.126-0.327-0.182-0.495c-0.059-0.179-0.109-0.361-0.16-0.542c-0.063-0.224-0.123-0.449-0.175-0.678
			c-0.037-0.161-0.07-0.322-0.101-0.485c-0.05-0.267-0.09-0.537-0.124-0.809c-0.017-0.137-0.038-0.273-0.051-0.41
			c-0.038-0.411-0.063-0.825-0.063-1.246c0-0.002,0-0.003,0-0.005c0.001-0.392,0.026-0.783,0.061-1.172
			c0.012-0.133,0.025-0.265,0.041-0.398c0.03-0.26,0.073-0.517,0.118-0.772c0.057-0.315,0.125-0.627,0.205-0.937
			c0.03-0.117,0.058-0.235,0.09-0.351c0.075-0.261,0.156-0.521,0.247-0.778c0.008-0.023,0.017-0.046,0.025-0.069
			c0.302-0.84,0.688-1.654,1.156-2.429c0.007-0.012,0.013-0.026,0.02-0.039c0.863-1.417,1.978-2.659,3.288-3.668
			c0.005-0.004,0.012-0.007,0.017-0.011c1.074-0.824,2.241-1.462,3.469-1.924c0.166-0.062,0.33-0.127,0.499-0.183
			c0.178-0.059,0.36-0.109,0.54-0.16c0.225-0.063,0.451-0.123,0.68-0.175c0.16-0.036,0.321-0.07,0.483-0.1
			c0.268-0.05,0.539-0.091,0.813-0.124c0.136-0.017,0.27-0.037,0.406-0.05c0.413-0.038,0.829-0.063,1.251-0.063
			c0.397,0,0.788,0.026,1.177,0.06c0.134,0.012,0.268,0.026,0.401,0.042c0.258,0.03,0.511,0.072,0.765,0.117
			c0.319,0.058,0.637,0.127,0.951,0.208c0.113,0.029,0.228,0.056,0.34,0.088c0.262,0.075,0.523,0.157,0.78,0.248
			c0.022,0.008,0.044,0.016,0.066,0.024c0.841,0.302,1.656,0.688,2.431,1.156c0.01,0.006,0.021,0.01,0.031,0.016
			c1.413,0.86,2.653,1.969,3.661,3.273c0.009,0.012,0.015,0.025,0.024,0.036c0.823,1.071,1.46,2.236,1.923,3.461
			c0.063,0.169,0.13,0.336,0.187,0.509c0.058,0.176,0.107,0.355,0.158,0.534c0.064,0.227,0.125,0.456,0.177,0.688
			c0.036,0.158,0.069,0.317,0.099,0.476c0.051,0.271,0.091,0.544,0.126,0.82c0.017,0.133,0.037,0.266,0.049,0.4
			c0.039,0.413,0.064,0.83,0.064,1.253C359.059,252.215,359.059,252.216,359.059,252.217z M351.531,224.102
			c-1.559-0.326-3.165-0.52-4.804-0.58c-0.074-0.003-0.148-0.003-0.223-0.006c-0.285-0.008-0.568-0.022-0.854-0.022
			c-0.162,0-0.322,0.01-0.483,0.012c-0.118,0.002-0.235,0.006-0.352,0.009c-0.401,0.011-0.801,0.031-1.198,0.059
			c-0.148,0.01-0.296,0.021-0.444,0.034c-0.358,0.031-0.714,0.069-1.069,0.113c-0.181,0.022-0.362,0.044-0.543,0.069
			c-0.307,0.044-0.611,0.096-0.914,0.149c-0.219,0.038-0.438,0.074-0.656,0.117c-0.253,0.051-0.502,0.11-0.753,0.168
			c-0.216,0.049-0.435,0.09-0.65,0.145c-2.344-15.484-0.99-23.803,1.199-26.318c0.617-0.635,3.346-1.644,9.276-1.644
			c3.77,0,8.832,0.408,15.47,1.579C360.146,204.626,355.148,213.573,351.531,224.102z M399.879,271.097
			c-6.638-4.387-15.585-9.384-26.116-13.002c0.397-1.899,0.608-3.865,0.608-5.88c0,0,0,0,0-0.001c0-0.001,0,0,0-0.001
			c0-0.001,0-0.003,0-0.005c0-0.552-0.02-1.099-0.051-1.643c-0.011-0.19-0.029-0.378-0.043-0.568
			c-0.027-0.354-0.058-0.707-0.098-1.057c-0.026-0.225-0.055-0.45-0.086-0.674c-0.043-0.315-0.093-0.628-0.147-0.939
			c-0.04-0.232-0.079-0.464-0.124-0.695c-0.064-0.325-0.138-0.646-0.214-0.967c-0.04-0.17-0.07-0.343-0.113-0.512
			c15.476-2.345,23.794-0.992,26.322,1.201C400.855,247.372,402.889,254.036,399.879,271.097z"/>
	</g>
</g>
<g>
	<g>
		<path d="M122.759,365.388c-11.098-11.096-29.154-11.096-40.252,0.001c-11.097,11.098-11.097,29.155,0,40.253
			c5.55,5.549,12.836,8.322,20.127,8.322c7.287,0,14.578-2.774,20.126-8.322c0,0,0,0,0.001,0
			C133.857,394.545,133.857,376.487,122.759,365.388z M111.934,394.815c-5.129,5.129-13.473,5.127-18.601,0s-5.128-13.471,0-18.6
			c2.564-2.565,5.931-3.847,9.3-3.847c3.367,0,6.736,1.283,9.3,3.846C117.061,381.344,117.061,389.688,111.934,394.815z"/>
	</g>
</g>
<g>
	<g>
		<path d="M122.76,432.916c-11.099-11.096-29.155-11.095-40.253,0c-11.097,11.097-11.097,29.154,0,40.253
			c5.55,5.549,12.836,8.322,20.127,8.322c7.287,0,14.578-2.774,20.126-8.322l0.001-0.001
			C133.858,462.07,133.858,444.013,122.76,432.916z M111.934,462.343c-5.129,5.129-13.473,5.128-18.601,0.001
			c-5.128-5.129-5.128-13.473,0-18.601c2.564-2.565,5.932-3.847,9.3-3.847c3.368,0,6.736,1.282,9.3,3.847
			C117.061,448.871,117.061,457.215,111.934,462.343z"/>
	</g>
</g>
<g>
	<g>
		<path d="M191.504,365.388c-11.098-11.096-29.155-11.098-40.253,0.001c-11.097,11.098-11.097,29.155,0,40.253
			c5.549,5.548,12.838,8.323,20.127,8.323c7.288,0,14.578-2.775,20.127-8.323C202.601,394.545,202.601,376.487,191.504,365.388z
			 M180.677,394.815c-5.127,5.129-13.472,5.129-18.6,0c-5.128-5.127-5.128-13.471,0-18.6c2.564-2.565,5.932-3.847,9.3-3.847
			s6.736,1.282,9.3,3.846C185.806,381.344,185.806,389.688,180.677,394.815z"/>
	</g>
</g>
<g>
	<g>
		<path d="M191.505,432.916c-11.099-11.096-29.156-11.096-40.254,0c-11.097,11.097-11.097,29.154,0,40.253
			c5.549,5.548,12.838,8.323,20.127,8.323c7.288,0,14.578-2.775,20.127-8.323c0-0.001,0-0.001,0-0.001
			C202.602,462.07,202.602,444.013,191.505,432.916z M180.677,462.343c-5.127,5.129-13.472,5.128-18.6,0.001
			c-5.128-5.129-5.128-13.473,0-18.601c2.564-2.565,5.932-3.847,9.3-3.847s6.736,1.282,9.3,3.847
			C185.806,448.871,185.806,457.215,180.677,462.343z"/>
	</g>
</g>
<g>
	<g>
		<path d="M272.114,92.657c-10.953-10.951-28.766-10.949-39.715-0.001c-5.304,5.305-8.224,12.356-8.224,19.858
			c0,7.501,2.921,14.552,8.224,19.857c5.305,5.304,12.356,8.224,19.857,8.224c7.502,0,14.553-2.921,19.858-8.224
			C283.062,121.422,283.062,103.606,272.114,92.657z M261.286,121.543c-4.979,4.981-13.084,4.98-18.06,0
			c-4.98-4.979-4.98-13.082,0-18.06c2.489-2.49,5.759-3.735,9.031-3.735c3.27,0,6.541,1.245,9.03,3.735
			C266.266,108.461,266.266,116.564,261.286,121.543z"/>
	</g>
</g>
<g>
	<g>
		<path d="M365.508,92.656c-5.305-5.304-12.357-8.224-19.858-8.224c-7.501,0-14.553,2.921-19.857,8.224
			c-10.948,10.95-10.948,28.765,0,39.713c5.304,5.305,12.356,8.225,19.857,8.225c7.501,0,14.553-2.92,19.858-8.224
			C376.456,121.421,376.456,103.605,365.508,92.656z M354.682,121.542c-2.412,2.412-5.619,3.741-9.031,3.741
			c-3.411,0-6.619-1.328-9.03-3.741c-4.98-4.978-4.98-13.081,0-18.061c2.411-2.412,5.619-3.74,9.03-3.74
			c3.412,0,6.619,1.329,9.031,3.74C359.661,108.461,359.661,116.564,354.682,121.542z"/>
	</g>
</g>
<g>
	<g>
		<path d="M458.902,92.655c-10.951-10.949-28.764-10.951-39.714,0c-10.949,10.95-10.949,28.765,0,39.714
			c5.305,5.304,12.356,8.224,19.858,8.224c7.501,0,14.552-2.921,19.857-8.224c5.303-5.304,8.223-12.355,8.223-19.856
			C467.126,105.011,464.205,97.96,458.902,92.655z M448.075,121.543c-4.977,4.98-13.082,4.98-18.06,0
			c-4.98-4.979-4.98-13.082,0-18.06c2.489-2.49,5.759-3.735,9.03-3.735s6.542,1.245,9.031,3.735
			C453.055,108.461,453.055,116.564,448.075,121.543z"/>
	</g>
</g>
<g>
	<g>
		<path d="M465.339,368.275H225.961c-4.228,0-7.655,3.427-7.655,7.655c0,4.228,3.427,7.655,7.655,7.655h239.378
			c4.228,0,7.655-3.427,7.655-7.655C472.994,371.702,469.567,368.275,465.339,368.275z"/>
	</g>
</g>
<g>
	<g>
		<path d="M465.339,411.625H225.961c-4.228,0-7.655,3.427-7.655,7.655c0,4.228,3.427,7.655,7.655,7.655h239.378
			c4.228,0,7.655-3.427,7.655-7.655C472.994,415.052,469.567,411.625,465.339,411.625z"/>
	</g>
</g>
<g>
	<g>
		<path d="M256.39,454.974h-30.429c-4.228,0-7.655,3.427-7.655,7.655c0,4.228,3.427,7.655,7.655,7.655h30.429
			c4.228,0,7.655-3.427,7.655-7.655C264.045,458.401,260.618,454.974,256.39,454.974z"/>
	</g>
</g>
<g>
	<g>
		<path d="M465.339,454.974H296.828c-4.228,0-7.655,3.427-7.655,7.655c0,4.228,3.427,7.655,7.655,7.655H465.34
			c4.228,0,7.655-3.427,7.655-7.655C472.994,458.401,469.568,454.974,465.339,454.974z"/>
	</g>
</g>
<g>
</g>
<g>
</g>
<g>
</g>
<g>
</g>
<g>
</g>
<g>
</g>
<g>
</g>
<g>
</g>
<g>
</g>
<g>
</g>
<g>
</g>
<g>
</g>
<g>
</g>
<g>
</g>
<g>
</g>
</svg>
