<?xml version="1.0" encoding="iso-8859-1"?>
<!-- Generator: Adobe Illustrator 19.0.0, SVG Export Plug-In . SVG Version: 6.00 Build 0)  -->
<svg version="1.1" id="Capa_1" xmlns="http://www.w3.org/2000/svg" xmlns:xlink="http://www.w3.org/1999/xlink" x="0px" y="0px"
	 viewBox="0 0 512 512" style="enable-background:new 0 0 512 512;" xml:space="preserve">
<g>
	<g>
		<path d="M79.402,373.672c-4.082,0-7.392,3.309-7.392,7.392v18.643c0,4.082,3.309,7.392,7.392,7.392
			c4.083,0,7.392-3.309,7.392-7.392v-18.643C86.794,376.98,83.484,373.672,79.402,373.672z"/>
	</g>
</g>
<g>
	<g>
		<path d="M122.52,373.672c-4.082,0-7.392,3.309-7.392,7.392v18.643c0,4.082,3.309,7.392,7.392,7.392s7.392-3.309,7.392-7.392
			v-18.643C129.912,376.98,126.603,373.672,122.52,373.672z"/>
	</g>
</g>
<g>
	<g>
		<circle cx="212.64" cy="154.94" r="7.61"/>
	</g>
</g>
<g>
	<g>
		<circle cx="467.06" cy="154.94" r="7.61"/>
	</g>
</g>
<g>
	<g>
		<circle cx="212.64" cy="425.839" r="7.61"/>
	</g>
</g>
<g>
	<g>
		<circle cx="467.06" cy="425.839" r="7.61"/>
	</g>
</g>
<g>
	<g>
		<path d="M337.41,149.765c-77.071,0-139.773,62.702-139.773,139.773S260.339,429.31,337.41,429.31s139.773-62.702,139.773-139.773
			S414.481,149.765,337.41,149.765z M344.801,164.773c63.044,3.696,113.677,54.329,117.373,117.373H434.73
			c-3.607-47.936-41.992-86.322-89.929-89.929V164.773z M389.525,282.146c-3.265-23.123-21.6-41.458-44.723-44.723v-30.354
			c39.775,3.537,71.539,35.302,75.076,75.077H389.525z M419.878,296.928c-3.537,39.775-35.301,71.54-75.076,75.077v-30.354
			c23.122-3.265,41.458-21.6,44.723-44.723H419.878z M330.018,164.773v27.444c-47.936,3.607-86.323,41.993-89.93,89.929h-27.444
			C216.34,219.102,266.973,168.468,330.018,164.773z M330.018,207.068v30.354c-23.123,3.265-41.458,21.6-44.723,44.723h-30.354
			C258.478,242.37,290.243,210.606,330.018,207.068z M330.018,414.302c-63.045-3.696-113.678-54.329-117.374-117.373h27.444
			c3.607,47.936,41.993,86.322,89.93,89.929V414.302z M330.018,372.005c-39.776-3.537-71.54-35.301-75.077-75.077h30.354
			c3.265,23.123,21.6,41.458,44.723,44.723V372.005z M337.41,327.398c-20.876,0-37.86-16.984-37.86-37.86
			c0-20.876,16.985-37.86,37.86-37.86c20.876,0,37.86,16.984,37.86,37.86C375.27,310.414,358.285,327.398,337.41,327.398z
			 M344.802,414.302v-27.444c47.936-3.607,86.322-41.993,89.929-89.929h27.445C458.479,359.974,407.846,410.607,344.802,414.302z"/>
	</g>
</g>
<g>
	<g>
		<path d="M481.607,100.456H30.392C13.634,100.456,0,114.089,0,130.848v309.098c0,16.758,13.634,30.392,30.392,30.392h451.215
			c16.758,0,30.393-13.634,30.393-30.392V130.848C512,114.089,498.366,100.456,481.607,100.456z M481.608,455.555H30.392
			c-8.607,0-15.609-7.002-15.609-15.609V130.848c0-8.607,7.002-15.609,15.609-15.609h451.215c8.607,0,15.609,7.002,15.609,15.609
			v309.098h0.001C497.217,448.552,490.215,455.555,481.608,455.555z"/>
	</g>
</g>
<g>
	<g>
		<path d="M498.719,71.015l-3.345-11.083c-3.297-10.927-13.182-18.269-24.596-18.269H41.223c-11.413,0-21.298,7.342-24.596,18.269
			L13.01,71.914c-1.18,3.908,1.032,8.033,4.94,9.213c0.712,0.215,1.431,0.317,2.139,0.317c3.174,0,6.109-2.062,7.074-5.258
			l3.617-11.983c1.4-4.64,5.597-7.757,10.443-7.757h429.555c4.846,0,9.042,3.117,10.443,7.757l3.346,11.084
			c1.179,3.908,5.302,6.116,9.212,4.94C497.688,79.047,499.899,74.922,498.719,71.015z"/>
	</g>
</g>
<g>
	<g>
		<path d="M150.522,149.765H51.4c-9.144,0-16.583,7.439-16.583,16.583v99.122c0,9.144,7.439,16.583,16.583,16.583h99.122
			c9.143,0,16.582-7.439,16.582-16.583v-99.122C167.104,157.203,159.666,149.765,150.522,149.765z M152.321,265.469
			c0,0.992-0.807,1.799-1.799,1.799H51.4c-0.992,0-1.799-0.807-1.799-1.799v-99.122c0-0.992,0.807-1.799,1.799-1.799h99.122
			c0.992,0,1.799,0.807,1.799,1.799V265.469z"/>
	</g>
</g>
<g>
	<g>
		<path d="M163.243,370.498l-16.423-18.475c-2.898-3.262-7.064-5.133-11.428-5.133H66.53c-4.364,0-8.53,1.871-11.428,5.132
			l-16.423,18.476c-2.49,2.802-3.861,6.409-3.861,10.158v33.893c0,8.431,6.859,15.29,15.29,15.29h101.707
			c8.431,0,15.29-6.859,15.29-15.29v-33.893C167.105,376.907,165.733,373.3,163.243,370.498z M152.321,414.549L152.321,414.549
			c0,0.279-0.227,0.506-0.506,0.506H50.107c-0.279,0-0.506-0.227-0.506-0.506v-33.893c0-0.125,0.045-0.244,0.128-0.336
			l16.423-18.476c0.096-0.108,0.234-0.169,0.378-0.169h68.862c0.144,0,0.282,0.062,0.378,0.17l16.423,18.475
			c0.083,0.093,0.128,0.212,0.128,0.337V414.549z"/>
	</g>
</g>
<g>
	<g>
		<path d="M123.678,211.398c-1.214-2.607-3.827-4.273-6.702-4.273h-16.015l20.126-23.071c2.672-3.087,2.335-7.755-0.752-10.426
			c-3.087-2.671-7.755-2.334-10.426,0.752l-30.552,35.3c-1.893,2.188-2.336,5.279-1.134,7.91c1.202,2.631,3.83,4.319,6.723,4.319
			h16.015l-21.672,25.934c-2.628,3.124-2.225,7.787,0.899,10.415c1.386,1.166,3.075,1.735,4.754,1.735
			c2.106,0,4.199-0.896,5.661-2.634l32.031-38.083C124.484,217.076,124.891,214.003,123.678,211.398z"/>
	</g>
</g>
<g>
</g>
<g>
</g>
<g>
</g>
<g>
</g>
<g>
</g>
<g>
</g>
<g>
</g>
<g>
</g>
<g>
</g>
<g>
</g>
<g>
</g>
<g>
</g>
<g>
</g>
<g>
</g>
<g>
</g>
</svg>
