<?xml version="1.0" encoding="iso-8859-1"?>
<!-- Generator: Adobe Illustrator 19.0.0, SVG Export Plug-In . SVG Version: 6.00 Build 0)  -->
<svg version="1.1" id="Capa_1" xmlns="http://www.w3.org/2000/svg" xmlns:xlink="http://www.w3.org/1999/xlink" x="0px" y="0px"
	 viewBox="0 0 512 512" style="enable-background:new 0 0 512 512;" xml:space="preserve">
<g>
	<g>
		<path d="M187.908,233.745c0-4.57,4.256-7.332,11.729-7.332c8.719,0,11.106,3.618,14.325,3.618c3.736,0,5.397-4.38,5.397-6.571
			c0-6.284-13.597-7.617-19.722-7.617c-11.937,0-25.224,4.856-25.224,19.045c0,22.567,33.321,18.187,33.321,32.471
			c0,5.712-5.398,8.283-11.626,8.283c-10.588,0-13.39-7.332-17.646-7.332c-3.218,0-5.916,3.999-5.916,6.666
			c0,5.523,10.379,11.808,23.978,11.808c14.325,0,24.704-7.047,24.704-20.664C221.228,241.458,187.908,245.552,187.908,233.745z"/>
	</g>
</g>
<g>
	<g>
		<path d="M242.092,233.745c0-4.57,4.256-7.332,11.729-7.332c8.719,0,11.106,3.618,14.325,3.618c3.736,0,5.397-4.38,5.397-6.571
			c0-6.284-13.597-7.617-19.722-7.617c-11.937,0-25.224,4.856-25.224,19.045c0,22.567,33.321,18.187,33.321,32.471
			c-0.001,5.712-5.398,8.283-11.626,8.283c-10.588,0-13.39-7.332-17.646-7.332c-3.218,0-5.916,3.999-5.916,6.666
			c0,5.523,10.379,11.808,23.978,11.808c14.325,0,24.704-7.047,24.704-20.664C275.412,241.458,242.092,245.552,242.092,233.745z"/>
	</g>
</g>
<g>
	<g>
		<path d="M308.936,216.317h-18.373c-3.529,0-5.917,1.809-5.917,3.81v61.99c0.001,1.999,2.388,3.808,5.917,3.808h18.373
			c13.702,0,24.394-5.904,24.394-21.806v-25.996C333.33,222.221,322.639,216.317,308.936,216.317z M319.835,264.12
			c0,7.428-4.048,10.951-10.899,10.951h-10.795v-47.898h10.795c6.851,0,10.899,3.523,10.899,10.951V264.12z"/>
	</g>
</g>
<g>
	<g>
		<path d="M451.27,152.288c-4.144,0-7.502,3.359-7.502,7.502v316.652c0,11.334-9.22,20.555-20.554,20.555H88.786
			c-11.334,0-20.555-9.221-20.555-20.555v-99.937c0-4.143-3.359-7.502-7.502-7.502c-4.143,0-7.502,3.359-7.502,7.502v99.937
			C53.228,496.048,69.179,512,88.786,512h334.427c19.606,0,35.557-15.952,35.557-35.558V159.79
			C458.77,155.647,455.413,152.288,451.27,152.288z"/>
	</g>
</g>
<g>
	<g>
		<path d="M423.213,0H88.786C69.179,0,53.228,15.952,53.228,35.558v300.936c0,4.143,3.359,7.502,7.502,7.502
			s7.502-3.359,7.502-7.502V35.558c0-11.334,9.221-20.555,20.555-20.555h334.427c11.334,0,20.554,9.221,20.554,20.555v84.222
			c0,4.143,3.358,7.502,7.502,7.502c4.144,0,7.502-3.359,7.502-7.502V35.558C458.77,15.952,442.819,0,423.213,0z"/>
	</g>
</g>
<g>
	<g>
		<path d="M360.146,110.027h-9.668V88.073c0-4.143-3.358-7.502-7.502-7.502c-4.144,0-7.502,3.359-7.502,7.502v21.955h-28.483V88.073
			c0-4.143-3.358-7.502-7.502-7.502c-4.144,0-7.502,3.359-7.502,7.502v21.955h-28.484V88.073c0-4.143-3.358-7.502-7.502-7.502
			c-4.143,0-7.502,3.359-7.502,7.502v21.955h-28.483V88.073c0-4.143-3.359-7.502-7.502-7.502s-7.502,3.359-7.502,7.502v21.955
			h-28.483V88.073c-0.001-4.143-3.359-7.502-7.502-7.502s-7.502,3.359-7.502,7.502v21.955h-9.667
			c-10.883,0-19.736,8.853-19.736,19.736v252.474c0,10.883,8.853,19.736,19.736,19.736h9.667v21.955
			c0,4.143,3.359,7.502,7.502,7.502s7.502-3.359,7.502-7.502v-21.955h28.483v21.955c0,4.143,3.359,7.502,7.502,7.502
			s7.502-3.359,7.502-7.502v-21.955h28.483v21.955c0,4.143,3.359,7.502,7.502,7.502c4.144,0,7.502-3.359,7.502-7.502v-21.955h28.484
			v21.955c0,4.143,3.358,7.502,7.502,7.502c4.144,0,7.502-3.359,7.502-7.502v-21.955h28.483v21.955c0,4.143,3.358,7.502,7.502,7.502
			c4.144,0,7.502-3.359,7.502-7.502v-21.955h9.668c10.882,0,19.735-8.853,19.735-19.736V129.763
			C379.881,118.88,371.027,110.027,360.146,110.027z M364.874,382.237c0,2.61-2.123,4.732-4.732,4.732H151.858
			c-2.61,0-4.732-2.123-4.732-4.732V129.763c0-2.61,2.123-4.732,4.732-4.732h208.285c2.609,0,4.732,2.123,4.732,4.732V382.237z"/>
	</g>
</g>
<g>
	<g>
		<path d="M114.632,34.061c-15.38,0-27.892,12.512-27.892,27.892s12.512,27.892,27.892,27.892s27.893-12.512,27.893-27.892
			S130.012,34.061,114.632,34.061z M114.632,74.841c-7.107,0-12.888-5.782-12.888-12.888s5.782-12.888,12.888-12.888
			c7.107,0,12.889,5.782,12.889,12.888S121.738,74.841,114.632,74.841z"/>
	</g>
</g>
<g>
	<g>
		<path d="M397.368,34.061c-15.38,0-27.892,12.512-27.892,27.892s12.512,27.892,27.892,27.892s27.893-12.512,27.893-27.892
			S412.746,34.061,397.368,34.061z M397.368,74.841c-7.106,0-12.888-5.782-12.888-12.888s5.782-12.888,12.888-12.888
			c7.107,0,12.889,5.782,12.889,12.888S404.475,74.841,397.368,74.841z"/>
	</g>
</g>
<g>
	<g>
		<path d="M114.632,422.155c-15.38,0-27.892,12.512-27.892,27.892s12.513,27.892,27.892,27.892c15.38,0,27.893-12.512,27.893-27.892
			S130.012,422.155,114.632,422.155z M114.632,462.935c-7.107,0-12.888-5.782-12.888-12.888c0-7.106,5.782-12.888,12.888-12.888
			c7.107,0,12.889,5.782,12.889,12.888C127.52,457.154,121.738,462.935,114.632,462.935z"/>
	</g>
</g>
<g>
	<g>
		<path d="M397.368,422.155c-15.38,0-27.892,12.512-27.892,27.892s12.512,27.892,27.892,27.892s27.893-12.512,27.893-27.892
			S412.746,422.155,397.368,422.155z M397.368,462.936c-7.106,0-12.888-5.782-12.888-12.888c0-7.107,5.782-12.888,12.888-12.888
			c7.107,0,12.889,5.782,12.889,12.888C410.257,457.154,404.475,462.936,397.368,462.936z"/>
	</g>
</g>
<g>
</g>
<g>
</g>
<g>
</g>
<g>
</g>
<g>
</g>
<g>
</g>
<g>
</g>
<g>
</g>
<g>
</g>
<g>
</g>
<g>
</g>
<g>
</g>
<g>
</g>
<g>
</g>
<g>
</g>
</svg>
